<?xml version="1.0" encoding="UTF-8"?>
<svg width="554px" height="937px" viewBox="0 0 554 937" version="1.1" xmlns="http://www.w3.org/2000/svg" xmlns:xlink="http://www.w3.org/1999/xlink">
    <title>image</title>
    <defs>
        <linearGradient x1="50%" y1="0%" x2="50%" y2="100%" id="linearGradient-1">
            <stop stop-color="#00D5FF" offset="0%"></stop>
            <stop stop-color="#7305EC" offset="100%"></stop>
        </linearGradient>
        <linearGradient x1="50%" y1="0%" x2="50%" y2="100%" id="linearGradient-2">
            <stop stop-color="#FFBCBD" offset="0%"></stop>
            <stop stop-color="#FF86F5" stop-opacity="0" offset="100%"></stop>
        </linearGradient>
        <linearGradient x1="50%" y1="0%" x2="50%" y2="100%" id="linearGradient-3">
            <stop stop-color="#FFBCBD" offset="0%"></stop>
            <stop stop-color="#FF86F5" stop-opacity="0" offset="100%"></stop>
        </linearGradient>
        <linearGradient x1="50%" y1="0%" x2="50%" y2="100%" id="linearGradient-4">
            <stop stop-color="#859BF6" offset="0%"></stop>
            <stop stop-color="#4E61EB" offset="100%"></stop>
        </linearGradient>
        <linearGradient x1="50%" y1="0%" x2="50%" y2="100%" id="linearGradient-5">
            <stop stop-color="#859BF6" offset="0%"></stop>
            <stop stop-color="#4E61EB" offset="100%"></stop>
        </linearGradient>
    </defs>
    <g id="image" stroke="none" stroke-width="1" fill="none" fill-rule="evenodd">
        <g id="Group-7-Copy" transform="translate(147.848585, 67.100241)">
            <g id="Group-4" transform="translate(0.000000, 128.000000)">
                <g id="Group-2">
                    <g id="Group">
                        <path d="M66.0777087,10.5231168 C38.3662228,41.5647961 16.3907917,101.690344 0.151415417,190.899759 L82.9448521,142.690358 C99.4115758,23.5371846 93.7891947,-20.5185625 66.0777087,10.5231168 Z" id="Path-4" fill="#7C8DFF"></path>
                        <polygon id="Path-5" fill="#3E4EB3" points="0.151415417 191.899759 87.1514154 90.8997592 87.1514154 150.423184"></polygon>
                    </g>
                    <path d="M56.1514154,25.1576813 C48.1917244,55.9363893 42.5130029,83.2714527 39.1152509,107.162872 C35.7174988,131.054291 31.1019015,149.353791 25.268459,162.061372 L56,165.972115 L87.1514154,150.423184 L56.1514154,25.1576813 Z" id="Path-6" fill="#323591" opacity="0.307440622"></path>
                    <line x1="0.151415417" y1="191.899759" x2="67.0516847" y2="114.553935" id="Path-7" stroke="#FFFFFF"></line>
                </g>
                <g id="Group-3" transform="translate(45.151415, 96.899759)" stroke="#1D324F">
                    <circle id="Oval" cx="3" cy="3" r="2.5"></circle>
                    <circle id="Oval-Copy" cx="3" cy="13" r="2.5"></circle>
                </g>
            </g>
            <g id="Group-4-Copy" transform="translate(183.500000, 224.000000) scale(-1, 1) translate(-183.500000, -224.000000) translate(137.000000, 128.000000)">
                <g id="Group-2">
                    <g id="Group">
                        <path d="M66.0777087,10.5231168 C38.3662228,41.5647961 16.3907917,101.690344 0.151415417,190.899759 L82.9448521,142.690358 C99.4115758,23.5371846 93.7891947,-20.5185625 66.0777087,10.5231168 Z" id="Path-4" fill="#7C8DFF"></path>
                        <polygon id="Path-5" fill="#3E4EB3" points="0.151415417 191.899759 87.1514154 90.8997592 87.1514154 150.423184"></polygon>
                    </g>
                    <path d="M56.1514154,25.1576813 C48.1917244,55.9363893 42.5130029,83.2714527 39.1152509,107.162872 C35.7174988,131.054291 31.1019015,149.353791 25.268459,162.061372 L56,165.972115 L87.1514154,150.423184 L56.1514154,25.1576813 Z" id="Path-6" fill="#323591" opacity="0.307440622"></path>
                    <line x1="0.151415417" y1="191.899759" x2="67.0516847" y2="114.553935" id="Path-7" stroke="#FFFFFF"></line>
                </g>
                <g id="Group-3" transform="translate(45.151415, 96.899759)" stroke="#1D324F">
                    <circle id="Oval" cx="3" cy="3" r="2.5"></circle>
                    <circle id="Oval-Copy" cx="3" cy="13" r="2.5"></circle>
                </g>
            </g>
            <path d="M104.606878,352.899759 C78.9883171,290.752143 63.174889,234.334014 57.1665938,183.645372 C51.1582986,132.95673 71.8199058,71.7081919 119.151415,-0.100240823 L119.151415,-0.100240823 L119.151,6.217 L119.315586,-0.100240823 C161.190458,71.7081921 179.082312,132.95673 172.991148,183.645372 C166.899985,234.334015 150.868454,290.752144 124.896555,352.899759 Z" id="Combined-Shape" fill="url(#linearGradient-1)"></path>
            <path d="M119.151415,-2.84217094e-14 C89.9741884,59.8672845 73.1249815,103.867284 68.6037948,132 C64.0826081,160.132716 80.1655172,209.372795 116.852522,279.720239 C150.985364,210.573413 166.529817,161.333333 163.485883,132 C160.441949,102.666667 145.663793,58.6666667 119.151415,-2.84217094e-14 Z" id="Path-8" fill="#FFFFFF" opacity="0.205646333"></path>
            <g id="Group-5" transform="translate(93.000000, 67.000000)" fill="#335A97">
                <circle id="Oval-Copy-2" cx="26" cy="27" r="22"></circle>
                <circle id="Oval" stroke="#FFFFFF" stroke-width="9" cx="22" cy="22" r="17.5"></circle>
            </g>
            <g id="Group-6" transform="translate(51.000000, 116.000000)">
                <path d="M63,46 C38.2756112,101.131782 21.7942361,146.711119 13.5558748,182.738013 C5.31751347,218.764908 0.798888543,245.852236 0,264 L63,209.839047 L63,46 Z" id="Path-2" fill="#9EABFF"></path>
                <path d="M127,46 C102.275611,101.131782 85.7942361,146.711119 77.5558748,182.738013 C69.3175135,218.764908 64.7988885,245.852236 64,264 L127,209.839047 L127,46 Z" id="Path-2-Copy" fill="#9EABFF" transform="translate(95.500000, 155.000000) scale(-1, 1) translate(-95.500000, -155.000000) "></path>
                <path d="M63.0003395,0 C58.9617205,61.5096685 54.9231014,123.019337 50.8844823,184.529006 C50.4270176,191.496364 55.7043288,197.515372 62.6716868,197.972836 C62.9474202,197.990941 63.2236729,198 63.5,198 C70.4472896,198 76.0791805,192.368109 76.0791805,185.420819 C76.0791805,185.124809 76.0687321,184.828892 76.0478547,184.533619 C71.698683,123.022413 67.3495113,61.5112063 63.0003395,0 Z" id="Path-3" fill="#FFFFFF"></path>
            </g>
        </g>
        <g id="Group-8-Copy" transform="translate(163.992741, 420.000000)">
            <polygon id="Path-9" fill="url(#linearGradient-2)" points="88.4627214 0 40.0657805 478 157.645906 478 109.051314 0.100240823"></polygon>
            <polygon id="Path-9" fill="url(#linearGradient-3)" points="88.4627214 0 -4.34474473e-13 478 188.587384 478 109.051314 0.100240823"></polygon>
        </g>
        <g id="Group-10-Copy-3" transform="translate(257.000000, 542.000000) rotate(39.000000) translate(-257.000000, -542.000000) translate(211.000000, 522.500000)">
            <g id="Group-9" transform="translate(0.000000, 0.500000)">
                <path d="M46,9.65079365 C58.8188185,9.65079365 70.4129727,11.2665171 78.7546966,13.8731211 L92,13.8730159 L92,24.7301587 L91.9077616,24.7303668 C90.3932987,32.1371045 70.4185888,38 46,38 C21.5814112,38 1.6067013,32.1371045 0.0922384391,24.7303668 L0,24.7301587 L0,13.8730159 L13.2453034,13.8731211 C21.5870273,11.2665171 33.1811815,9.65079365 46,9.65079365 Z" id="Combined-Shape" fill="#3747B9"></path>
                <ellipse id="Oval" fill="url(#linearGradient-4)" cx="46" cy="14.1746032" rx="46" ry="14.1746032"></ellipse>
                <ellipse id="Oval" fill="#3243BC" cx="46" cy="13.8730159" rx="32.5960265" ry="9.65079365"></ellipse>
            </g>
        </g>
        <g id="Group-10-Copy-4" transform="translate(328.018507, 758.063096) rotate(-52.000000) translate(-328.018507, -758.063096) translate(288.518507, 741.563096)">
            <g id="Group-9" transform="translate(0.538327, 0.446571)">
                <path d="M39,8.12698413 C49.8675043,8.12698413 59.6968254,9.487437 66.769067,11.6822499 L78,11.6825397 L78,20.8253968 L77.9218405,20.8253646 C76.6381722,27.0627153 59.7029461,32 39,32 C18.2970539,32 1.36182777,27.0627153 0.0781594553,20.8253646 L0,20.8253968 L0,11.6825397 L11.230933,11.6822499 C18.3031746,9.487437 28.1324957,8.12698413 39,8.12698413 Z" id="Combined-Shape" fill="#3747B9"></path>
                <ellipse id="Oval" fill="url(#linearGradient-5)" cx="39" cy="11.9365079" rx="39" ry="11.9365079"></ellipse>
                <ellipse id="Oval" fill="#3243BC" cx="39" cy="11.6825397" rx="27.6357616" ry="8.12698413"></ellipse>
            </g>
        </g>
        <g id="Group-10-Copy-5" transform="translate(201.018507, 814.063096) rotate(-104.000000) translate(-201.018507, -814.063096) translate(161.518507, 797.563096)">
            <g id="Group-9" transform="translate(0.538327, 0.446571)">
                <path d="M39,8.12698413 C49.8675043,8.12698413 59.6968254,9.487437 66.769067,11.6822499 L78,11.6825397 L78,20.8253968 L77.9218405,20.8253646 C76.6381722,27.0627153 59.7029461,32 39,32 C18.2970539,32 1.36182777,27.0627153 0.0781594553,20.8253646 L0,20.8253968 L0,11.6825397 L11.230933,11.6822499 C18.3031746,9.487437 28.1324957,8.12698413 39,8.12698413 Z" id="Combined-Shape" fill="#3747B9"></path>
                <ellipse id="Oval" fill="url(#linearGradient-5)" cx="39" cy="11.9365079" rx="39" ry="11.9365079"></ellipse>
                <ellipse id="Oval" fill="#3243BC" cx="39" cy="11.6825397" rx="27.6357616" ry="8.12698413"></ellipse>
            </g>
        </g>
    </g>
</svg>